/* XPM */
static char *_84d2b5b03224061cff72fb369f485b6BzppQMNANNn5zQRQ[] = {
/* columns rows colors chars-per-pixel */
"30 30 30 1 ",
"  c #593D29",
". c #79553A",
"X c #745844",
"o c #6C6C6C",
"O c #966C4A",
"+ c #509026",
"@ c #57972D",
"# c #5F9F35",
"$ c #61A137",
"% c #62A238",
"& c #64A43A",
"* c #66A63C",
"= c #68A83E",
"- c #6AAA40",
"; c #6CAC42",
": c #6FAF45",
"> c #70B046",
", c #73B349",
"< c #74B44A",
"1 c #76B64C",
"2 c #7EBE54",
"3 c #B9855C",
"4 c #81B051",
"5 c #8AB95A",
"6 c #8DBC5D",
"7 c #90BF60",
"8 c #92C162",
"9 c #97C567",
"0 c #9CCA6C",
"q c gray53",
/* pixels */
"<<11,,****::##;2211--**==$$++;",
"<<11,,****::##;2211--**==$$++;",
"<<;;554444  ==%##8877,,$$;;**-",
"<<;;554444  ==%##8877,,$$;;**-",
"66  00&&==  >> <<228899  @@$$ ",
"66  00&&==  >> <<228899  @@$$ ",
"  oo    >>     ##  ;;  ..    .",
"  oo    >>     ##  ;;  ..    .",
"OO..OO33  OO...      oo..OO  .",
"OO..OO33  OO...      oo..OO  .",
"..  OOOO..OO     ....  ......3",
"..  OOOO..OO     ....  ......3",
"33......qq....333..3333..OO..O",
"33......qq....333..3333..OO..O",
"....3333OOOO...OO  OOOO....OOO",
"OO....OO..OO.. ..OOOO......  .",
"OO....OO..OO.. ..OOOO......  .",
"..OO  ....    .........3333..O",
"..OO  ....    .........3333..O",
"..OO..3333..33O  3333  OOOOqq.",
"..OO..3333..33O  3333  OOOOqq.",
"OO....OOOO33..OooOOOO..  OO.. ",
"OO....OOOO33..OooOOOO..  OO.. ",
"..  OO..OOOO33.............333",
"..  OO..OOOO33.............333",
"..OO....XX..OOO..  33  ..33OOO",
"..OO....XX..OOO..  33  ..33OOO",
"OO..  33..  .. 3333..OO....OOO",
"OO..  33..  .. 3333..OO....OOO",
"OO..33OOOO..qq.OOOO....OOOO.. "
};
