/* XPM */
static char *_637e803b48a4b3dd3078624c9a9c9beYiJp4Gd9gZS082Su[] = {
/* columns rows colors chars-per-pixel */
"64 64 11 1 ",
"  c #FF5722",
". c #FF9900",
"X c #FFC106",
"o c #FFC107",
"O c #FEEA3A",
"+ c #FFEB3B",
"@ c #477F91",
"# c #4C8FA6",
"$ c #509EBA",
"% c #61B0C1",
"& c #7BBBC8",
/* pixels */
"############$$$$########@@@@@@@@@@@@$$$$############@@@@@@@@@@@@",
"############$$$$########@@@@@@@@@@@@$$$$############@@@@@@@@@@@@",
"############$$$$########@@@@@@@@@@@@$$$$############@@@@@@@@@@@@",
"############$$$$########@@@@@     @@$$$$############@@@@@@@@@@@@",
"########$$$$#################     ##$$$$########################",
"########$$$$#################     ##$$$$########################",
"########$$$$#################     ##$$$$########################",
"########$$$$############     XXXXX     $########################",
"$$$$####%%%%############     XXXXX     &####################$$$$",
"$$$$####%%%%############     XXXXX     &####################$$$$",
"$$$$####%%%%############     XXXXX     &####################$$$$",
"$$$$####%%%%#######     OOOOOXXXXXOOOOO     ################$$$$",
"####$$$$$$$$%%%%&&&     OOOOOXXXXXOOOOO     ########$$$$%%%%@@@@",
"####$$$$$$$$%%%%&&&     OOOOOXXXXXOOOOO     ########$$$$%%%%@@@@",
"####$$$$$$$$%%%%&&&     OOOOOXXXXXOOOOO     ########$$$$%%%%@@@@",
"####$$$$$$$$%%%%&&&     OOOOOXXXXXOOOOO     ########$$$$%%%%@@@@",
"############$$     XXXXXOOOOOXXXXXOOOOOXXXXX     %%%@@@@@@@@####",
"############$$     XXXXXOOOOOXXXXXOOOOOXXXXX     %%%@@@@@@@@####",
"############$$     XXXXXOOOOOXXXXXOOOOOXXXXX     %%%@@@@@@@@####",
"############$$     XXXXXOOOOOXXXXXOOOOOXXXXX     %%%@@@@@@@@####",
"#########     OOOOOOOOOOXXXXXOOOOOXXXXX..........     ##########",
"#########     OOOOOOOOOOXXXXXOOOOOXXXXX..........     ##########",
"#########     OOOOOOOOOOXXXXXOOOOOXXXXX..........     ##########",
"#########     OOOOOOOOOOXXXXXOOOOOXXXXX..........     ##########",
"########%     OOOOOXXXXXOOOOO..........XXXXX.....     ##########",
"########%     OOOOOXXXXXOOOOO..........XXXXX.....     ##########",
"########%     OOOOOXXXXXOOOOO..........XXXXX.....     ##########",
"########%     OOOOOXXXXXOOOOO..........XXXXX.....     ##########",
"%%%%%%%%@     OOOOOXXXXX...............XXXXX.....     ##########",
"%%%%%%%%@     OOOOOXXXXX...............XXXXX.....     ##########",
"%%%%%%%%@     OOOOOXXXXX...............XXXXX.....     ##########",
"%%%%%%%%@     OOOOOXXXXX...............XXXXX.....     ##########",
"####@@@@@     .....XXXXX...............XXXXX.....     ##########",
"####@@@@@     .....XXXXX...............XXXXX.....     ##########",
"####@@@@@     .....XXXXX...............XXXXX.....     ##########",
"####@@@@@     .....XXXXX...............XXXXX.....     ##########",
"#########     .....XXXXX...............XXXXX.....     ######$$$$",
"#########     .....XXXXX...............XXXXX.....     ######$$$$",
"#########     .....XXXXX...............XXXXX.....     ######$$$$",
"#########     .....XXXXX...............XXXXX.....     ######$$$$",
"$$$$#####     .....XXXXX...............XXXXX.....     $$%%%%@@@@",
"$$$$#####     ..........XXXXX.....XXXXX..........     $$%%%%@@@@",
"$$$$#####     ..........XXXXX.....XXXXX..........     $$%%%%@@@@",
"$$$$#####     ..........XXXXX.....XXXXX..........     $$%%%%@@@@",
"@@@@$$$$%     ..........XXXXX.....XXXXX..........     @@@@@@####",
"@@@@$$$$%%%%##     XXXXX.....XXXXX.....XXXXX     @@@@@@@@@@@####",
"@@@@$$$$%%%%##     XXXXX.....XXXXX.....XXXXX     @@@@@@@@@@@####",
"@@@@$$$$%%%%##     XXXXX.....XXXXX.....XXXXX     @@@@@@@@@@@####",
"####@@@@$$$$##     XXXXX.....XXXXX.....XXXXX     ###############",
"####@@@@$$$$#######     .....XXXXX.....     ####################",
"####@@@@$$$$#######     .....XXXXX.....     ####################",
"####@@@@$$$$#######     .....XXXXX.....     ####################",
"########@@@@%%%%###     .....XXXXX.....     ################$$$$",
"########@@@@%%%%###     .....XXXXX.....     ################$$$$",
"########@@@@%%%%########     XXXXX     @@@@@################$$$$",
"########@@@@%%%%########     XXXXX     @@@@@################$$$$",
"$$$$%%%%########$$$$%%%%     XXXXX     #############%%%%%%%%@@@@",
"$$$$%%%%########$$$$%%%%     XXXXX     #############%%%%%%%%@@@@",
"$$$$%%%%########$$$$%%%%%%%%$     @@################%%%%%%%%@@@@",
"$$$$%%%%########$$$$%%%%%%%%$     @@################%%%%%%%%@@@@",
"####@@@@%%%%$$$$############@     ######$$$$%%%%$$$$####@@@@####",
"####@@@@%%%%$$$$############@     ######$$$$%%%%$$$$####@@@@####",
"####@@@@%%%%$$$$############@@@@########$$$$%%%%$$$$####@@@@####",
"####@@@@%%%%$$$$############@@@@########$$$$%%%%$$$$####@@@@####"
};
