/* XPM */
static char *ef142ccd0f4843b6a2497a3ee440d8bdqiUfkxw0yQWYLZUz[] = {
/* columns rows colors chars-per-pixel */
"64 64 3 1 ",
"  c black",
". c #464646",
"X c #F5E49C",
/* pixels */
"XXXXXXXXXXXXXXXXXXXXXXXXXXXXXXXXXXXXXXXXXXXXXXXXXXXXXXXXXXXXXXXX",
"XXXXXXXXXXXXXXXXXXXXXXXXXXXXXXXXXXXXXXXXXXXXXXXXXXXXXXXXXXXXXXXX",
"XXXXXXXXXXXXXXXXXXXXXXXXXXXXXXXXXXXXXXXXXXXXXXXXXXXXXXXXXXXXXXXX",
"XXXXXXXXXXXXXXXXXXXXXXXXXXXXXX  XXXXXXXXXXXXXXXXXXXXXXXXXXXXXXXX",
"XXXXXXXXXXXXXXXXXXXXXXXXXXXXX    XXXXXXXXXXXXXXXXXXXXXXXXXXXXXXX",
"XXXXXXXXXXXXXXXXXXXXXXXXXXXX      XXXXXXXXXXXXXXXXXXXXXXXXXXXXXX",
"XXXXXXXXXXXXXXXXXXXXXXXXXXX        XXXXXXXXXXXXXXXXXXXXXXXXXXXXX",
"XXXXXXXXXXXXXXXXXXXXXXXXX            XXXXXXXXXXXXXXXXXXXXXXXXXXX",
"XXXXXXXXXXXXXXXXXXXXXXXX              XXXXXXXXXXXXXXXXXXXXXXXXXX",
"XXXXXXXXXXXXXXXXXXXXXXX                XXXXXXXXXXXXXXXXXXXXXXXXX",
"XXXXXXXXXXXXXXXXXXXXXX        ..        XXXXXXXXXXXXXXXXXXXXXXXX",
"XXXXXXXXXXXXXXXXXXXXX         ..         XXXXXXXXXXXXXXXXXXXXXXX",
"XXXXXXXXXXXXXXXXXXXX          ..          XXXXXXXXXXXXXXXXXXXXXX",
"XXXXXXXXXXXXXXXXXXX           ..           XXXXXXXXXXXXXXXXXXXXX",
"XXXXXXXXXXXXXXXXXXX           ..           XXXXXXXXXXXXXXXXXXXXX",
"XXXXXXXXXXXXXXXXXX            ..            XXXXXXXXXXXXXXXXXXXX",
"XXXXXXXXXXXXXXXXXX            ..            XXXXXXXXXXXXXXXXXXXX",
"XXXXXXXXXXXXXXXXX             ..             XXXXXXXXXXXXXXXXXXX",
"XXXXXXXXXXXXXXXXX             ..    ..       XXXXXXXXXXXXXXXXXXX",
"XXXXXXXXXXXXXXXX         ...  ..     ..       XXXXXXXXXXXXXXXXXX",
"XXXXXXXXXXXXXXX          .    ..      ..       XXXXXXXXXXXXXXXXX",
"XXXXXXXXXXXXXXX         ..    ..       ..      XXXXXXXXXXXXXXXXX",
"XXXXXXXXXXXXXXX        ..     ..        .      XXXXXXXXXXXXXXXXX",
"XXXXXXXXXXXXXX         .      ..        .       XXXXXXXXXXXXXXXX",
"XXXXXXXXXXXXXX         .      ..         .      XXXXXXXXXXXXXXXX",
"XXXXXXXXXXXXXX        ..      ..         .      XXXXXXXXXXXXXXXX",
"XXXXXXXXXXXXXX        .       ..         .      XXXXXXXXXXXXXXXX",
"XXXXXXXXXXXXX         .       ..         .       XXXXXXXXXXXXXXX",
"XXXXXXXXXXXXX        .        ..        .        XXXXXXXXXXXXXXX",
"XXXXXXXXXXXXX        .        ..        .        XXXXXXXXXXXXXXX",
"XXXXXXXXXXXXX       .         ..        .        XXXXXXXXXXXXXXX",
"XXXXXXXXXXXXX       .         ..        .        XXXXXXXXXXXXXXX",
"XXXXXXXXXXXX        .         ..        .         XXXXXXXXXXXXXX",
"XXXXXXXXXXXX        .         ..        .         XXXXXXXXXXXXXX",
"XXXXXXXXXXXX        .         ..        .         XXXXXXXXXXXXXX",
"XXXXXXXXXXX         .         ..        .          XXXXXXXXXXXXX",
"XXXXXXXXXXX         .         ..         .         XXXXXXXXXXXXX",
"XXXXXXXXXXX        ..         ..         .         XXXXXXXXXXXXX",
"XXXXXXXXXXX        .          ..         .         XXXXXXXXXXXXX",
"XXXXXXXXXXX        .          ..         ..        XXXXXXXXXXXXX",
"XXXXXXXXXXX        .          ..          .        XXXXXXXXXXXXX",
"XXXXXXXXXX         .      .   ..          .         XXXXXXXXXXXX",
"XXXXXXXXXX         .      .   ..          ..        XXXXXXXXXXXX",
"XXXXXXXXXX         .      .   ..           .        XXXXXXXXXXXX",
"XXXXXXXXXX         ..     .   ..           ..       XXXXXXXXXXXX",
"XXXXXXXXXX          ...   .   ..    .       .       XXXXXXXXXXXX",
"XXXXXXXXXX                .   ..    .               XXXXXXXXXXXX",
"XXXXXXXXXX               .    ..    .               XXXXXXXXXXXX",
"XXXXXXXXXX                    ..    ..              XXXXXXXXXXXX",
"XXXXXXXXXX      ..            ..     .              XXXXXXXXXXXX",
"XXXXXXXXXX       ....                               XXXXXXXXXXXX",
"XXXXXXXXXXX                                        XXXXXXXXXXXXX",
"XXXXXXXXXXXX                                      XXXXXXXXXXXXXX",
"XXXXXXXXXXXXXX                                  XXXXXXXXXXXXXXXX",
"XXXXXXXXXXXXXXXXX                            XXXXXXXXXXXXXXXXXXX",
"XXXXXXXXXXXXXXXXXXXX                      XXXXXXXXXXXXXXXXXXXXXX",
"XXXXXXXXXXXXXXXXXXXXXXX                XXXXXXXXXXXXXXXXXXXXXXXXX",
"XXXXXXXXXXXXXXXXXXXXXXXXXXXXXXXXXXXXXXXXXXXXXXXXXXXXXXXXXXXXXXXX",
"XXXXXXXXXXXXXXXXXXXXXXXXXXXXXXXXXXXXXXXXXXXXXXXXXXXXXXXXXXXXXXXX",
"XXXXXXXXXXXXXXXXXXXXXXXXXXXXXXXXXXXXXXXXXXXXXXXXXXXXXXXXXXXXXXXX",
"XXXXXXXXXXXXXXXXXXXXXXXXXXXXXXXXXXXXXXXXXXXXXXXXXXXXXXXXXXXXXXXX",
"XXXXXXXXXXXXXXXXXXXXXXXXXXXXXXXXXXXXXXXXXXXXXXXXXXXXXXXXXXXXXXXX",
"XXXXXXXXXXXXXXXXXXXXXXXXXXXXXXXXXXXXXXXXXXXXXXXXXXXXXXXXXXXXXXXX",
"XXXXXXXXXXXXXXXXXXXXXXXXXXXXXXXXXXXXXXXXXXXXXXXXXXXXXXXXXXXXXXXX"
};
