/* XPM */
static char *_34fc9aa4c994a78d6e5e98a205203f6J1hZQn8IZ5fxlpSE[] = {
/* columns rows colors chars-per-pixel */
"64 64 12 1 ",
"  c #FE5622",
". c #FE5722",
"X c #FF9900",
"o c #FFC106",
"O c #FEC107",
"+ c #FEEA3A",
"@ c #FEEB3B",
"# c #477F91",
"$ c #4C8FA6",
"% c #509EBA",
"& c #61B0C1",
"* c #7BBBC8",
/* pixels */
"$$$$$$$$$$$$%%%%$$$$$$$$############%%%%$$$$$$$$$$$$############",
"$$$$$$$$$$$$%%%%$$$$$$$$############%%%%$$$$$$$$$$$$############",
"$$$$$$$$$$$$%%%%$$$$$$$$############%%%%$$$$$$$$$$$$############",
"$$$$$$$$$$$$%%%%$$$$$$$$############%%%%$$$$$$$$$$$$############",
"$$$$$$$$%%%%$$$$$$$$$$$$$$$$$$$$$$$$%%%%$$$$$$$$$$$$$$$$$$$$$$$$",
"$$$$$$$$%%%%$$$$$$$$$$$$$$$$$$$$$$$$%%%%$$$$$$$$$$$$$$$$$$$$$$$$",
"$$$$$$$$%%%%$$$$$$$$$$$$$$$$$$$$$$$$%%%%$$$$$$$$$$$$$$$$$$$$$$$$",
"$$$$$$$$%%%%$$$$$$$$$$$$$$$$$$$$$$$$%%%%$$$$$$$$$$$$$$$$$$$$$$$$",
"%%%%$$$$&&&&$$$$$$$$$$$$%%%%&&    $$****$$$$$$$$$$$$$$$$$$$$%%%%",
"%%%%$$$$&&&&$$$$$$$$$$$$%%%%&&    $$****$$$$$$$$$$$$$$$$$$$$%%%%",
"%%%%$$$$&&&&$$$$$$$$$$$$%%%%&&    $$****$$$$$$$$$$$$$$$$$$$$%%%%",
"%%%%$$$$&&&&$$$$$$$$$$$$%%    oooo    **$$$$$$$$$$$$$$$$$$$$%%%%",
"$$$$%%%%%%%%&&&&****&&&&##    oooo    &&$$$$$$$$$$$$%%%%&&&&####",
"$$$$%%%%%%%%&&&&****&&&&##    oooo    &&$$$$$$$$$$$$%%%%&&&&####",
"$$$$%%%%%%%%&&&&****&&&&##    oooo    &&$$$$$$$$$$$$%%%%&&&&####",
"$$$$%%%%%%%%&&&&****&&&   ++++oooo++++   $$$$$$$$$$$%%%%&&&&####",
"$$$$$$$$$$$$%%%%$$$$$$$   ++++oooo++++   $$$$$$$&&&&########$$$$",
"$$$$$$$$$$$$%%%%$$$$$$$   ++++oooo++++   $$$$$$$&&&&########$$$$",
"$$$$$$$$$$$$%%%%$$$    ooo++++oooo++++ooo    $$$&&&&########$$$$",
"$$$$$$$$$$$$%%%%$$$    ooo++++oooo++++ooo    $$$&&&&########$$$$",
"$$$$$$$$$$$$%%%%$$$    ooo++++oooo++++ooo    &&&####$$$$$$$$$$$$",
"$$$$$$$$$$$$%%%%$$$    ooo++++oooo++++ooo    &&&####$$$$$$$$$$$$",
"$$$$$$$$$$$$%%%    +++++++oooo++++ooooXXXXXXX    ###$$$$$$$$$$$$",
"$$$$$$$$$$$$%%%    +++++++oooo++++ooooXXXXXXX    ###$$$$$$$$$$$$",
"$$$$$$$$&&&&###    +++++++oooo++++ooooXXXXXXX    $$$$$$$$$$$$$$$",
"$$$$$$$$&&&&###    ++++ooo++++XXXXXXXXoooXXXX    $$$$$$$$$$$$$$$",
"$$$$$$$$&&&&###    ++++ooo++++XXXXXXXXoooXXXX    $$$$$$$$$$$$$$$",
"$$$$$$$$&&&&###    ++++ooo++++XXXXXXXXoooXXXX    $$$$$$$$$$$$$$$",
"&&&&&&&&####$$$    ++++ooo++++XXXXXXXXoooXXXX    $$$$$$$$$$$$$$$",
"&&&&&&&&####$$$    ++++oooXXXXXXXXXXXXoooXXXX    $$$$$$$$$$$$$$$",
"&&&&&&&&####$$$    ++++oooXXXXXXXXXXXXoooXXXX    $$$$$$$$$$$$$$$",
"&&&&&&&&####$$$    ++++oooXXXXXXXXXXXXoooXXXX    $$$$$$$$$$$$$$$",
"$$$$########$$$    XXXXoooXXXXXXXXXXXXoooXXXX    $$$$$$$$$$$$$$$",
"$$$$########$$$    XXXXoooXXXXXXXXXXXXoooXXXX    $$$$$$$$$$$$$$$",
"$$$$########$$$    XXXXoooXXXXXXXXXXXXoooXXXX    $$$$$$$$$$$$$$$",
"$$$$########$$$    XXXXoooXXXXXXXXXXXXoooXXXX    $$$$$$$$$$$$$$$",
"$$$$$$$$$$$$$$$    XXXXoooXXXXXXXXXXXXoooXXXX    $$$$$$$$$$$%%%%",
"$$$$$$$$$$$$$$$    XXXXoooXXXXXXXXXXXXoooXXXX    $$$$$$$$$$$%%%%",
"$$$$$$$$$$$$$$$    XXXXoooXXXXXXXXXXXXoooXXXX    $$$$$$$$$$$%%%%",
"$$$$$$$$$$$$$$$    XXXXXXXooooXXXXooooXXXXXXX    $$$$$$$$$$$%%%%",
"%%%%$$$$$$$$&&&    XXXXXXXooooXXXXooooXXXXXXX    ***%%%%&&&&####",
"%%%%$$$$$$$$&&&    XXXXXXXooooXXXXooooXXXXXXX    ***%%%%&&&&####",
"%%%%$$$$$$$$&&&&***    oooXXXXooooXXXXooo    &&&****%%%%&&&&####",
"%%%%$$$$$$$$&&&&***    oooXXXXooooXXXXooo    &&&****%%%%&&&&####",
"####%%%%&&&&$$$$$$$    oooXXXXooooXXXXooo    $$$############$$$$",
"####%%%%&&&&$$$$$$$    oooXXXXooooXXXXooo    $$$############$$$$",
"####%%%%&&&&$$$$$$$$$$$   XXXXooooXXXX   &&&$$$$############$$$$",
"####%%%%&&&&$$$$$$$$$$$   XXXXooooXXXX   &&&$$$$############$$$$",
"$$$$####%%%%$$$$$$$$$$$   XXXXooooXXXX   $$$$$$$$$$$$$$$$$$$$$$$",
"$$$$####%%%%$$$$$$$$$$$$$$    oooo    &&$$$$$$$$$$$$$$$$$$$$$$$$",
"$$$$####%%%%$$$$$$$$$$$$$$    oooo    &&$$$$$$$$$$$$$$$$$$$$$$$$",
"$$$$####%%%%$$$$$$$$$$$$$$    oooo    &&$$$$$$$$$$$$$$$$$$$$$$$$",
"$$$$$$$$####&&&&$$$$$$$$$$    oooo    ######$$$$$$$$$$$$$$$$%%%%",
"$$$$$$$$####&&&&$$$$$$$$$$$$$$    %%########$$$$$$$$$$$$$$$$%%%%",
"$$$$$$$$####&&&&$$$$$$$$$$$$$$    %%########$$$$$$$$$$$$$$$$%%%%",
"$$$$$$$$####&&&&$$$$$$$$$$$$$$    %%########$$$$$$$$$$$$$$$$%%%%",
"%%%%&&&&$$$$$$$$%%%%&&&&&&&&%%%%####$$$$$$$$$$$$$$$$&&&&&&&&####",
"%%%%&&&&$$$$$$$$%%%%&&&&&&&&%%%%####$$$$$$$$$$$$$$$$&&&&&&&&####",
"%%%%&&&&$$$$$$$$%%%%&&&&&&&&%%%%####$$$$$$$$$$$$$$$$&&&&&&&&####",
"%%%%&&&&$$$$$$$$%%%%&&&&&&&&%%%%####$$$$$$$$$$$$$$$$&&&&&&&&####",
"$$$$####&&&&%%%%$$$$$$$$$$$$####$$$$$$$$%%%%&&&&%%%%$$$$####$$$$",
"$$$$####&&&&%%%%$$$$$$$$$$$$####$$$$$$$$%%%%&&&&%%%%$$$$####$$$$",
"$$$$####&&&&%%%%$$$$$$$$$$$$####$$$$$$$$%%%%&&&&%%%%$$$$####$$$$",
"$$$$####&&&&%%%%$$$$$$$$$$$$####$$$$$$$$%%%%&&&&%%%%$$$$####$$$$"
};
