/* XPM */
static char *_892db2ef6da4edabdde03de0598429bbfBXZTY6MnQfZuQx[] = {
/* columns rows colors chars-per-pixel */
"64 64 9 1 ",
"  c #FF5722",
". c #FF9900",
"X c #FFC106",
"o c #FFEA3B",
"O c #477F91",
"+ c #4C8FA6",
"@ c #509EBA",
"# c #61B0C1",
"$ c #7BBBC8",
/* pixels */
"++++++++++++@@@@++++++++OOOOOOOOOOOO@@@@++++++++++++OOOOOOOOOOOO",
"++++++++++++@@@@++++++++OOOOOOOOOOOO@@@@++++++++++++OOOOOOOOOOOO",
"++++++++++++@@@@++++++++OOOOOOOOOOOO@@@@++++++++++++OOOOOOOOOOOO",
"++++++++++++@@@@++++++++OOOOOOOOOOOO@@@@++++++++++++OOOOOOOOOOOO",
"++++++++@@@@++++++++++++++++++++++++@@@@++++++++++++++++++++++++",
"++++++++@@@@++++++++++++++++++++++++@@@@++++++++++++++++++++++++",
"++++++++@@@@++++++++++++++++++++++++@@@@++++++++++++++++++++++++",
"++++++++@@@@++++++++++++++++++++++++@@@@++++++++++++++++++++++++",
"@@@@++++####++++++++++++@@@@####++++$$$$++++++++++++++++++++@@@@",
"@@@@++++####++++++++++++@@@@####++++$$$$++++++++++++++++++++@@@@",
"@@@@++++####++++++++++++@@@@####++++$$$$++++++++++++++++++++@@@@",
"@@@@++++####++++++++++++@@@@####++++$$$$++++++++++++++++++++@@@@",
"++++@@@@@@@@####$$$$####OOOOOOOO@@@@####++++++++++++@@@@####OOOO",
"++++@@@@@@@@####$$$$####OOOOOOO  @@@####++++++++++++@@@@####OOOO",
"++++@@@@@@@@####$$$$####OOOOOOO  @@@####++++++++++++@@@@####OOOO",
"++++@@@@@@@@####$$$$####OOOOOOO  @@@####++++++++++++@@@@####OOOO",
"++++++++++++@@@@++++++++++++   XX   @@@@++++++++####OOOOOOOO++++",
"++++++++++++@@@@++++++++++++   XX   @@@@++++++++####OOOOOOOO++++",
"++++++++++++@@@@+++++++++   oooXXooo   @++++++++####OOOOOOOO++++",
"++++++++++++@@@@+++++++++   oooXXooo   @++++++++####OOOOOOOO++++",
"++++++++++++@@@@+++++++++   oooXXooo   +@@@@####OOOO++++++++++++",
"++++++++++++@@@@+++++++  XXXoooXXoooXXX  @@@####OOOO++++++++++++",
"++++++++++++@@@@+++++++  XXXoooXXoooXXX  @@@####OOOO++++++++++++",
"++++++++++++@@@@++++   oooooXXXooXXX.....   ####OOOO++++++++++++",
"++++++++####OOOO@@@@   oooooXXXooXXX.....   ####++++++++++++++++",
"++++++++####OOOO@@@@   oooooXXXooXXX.....   ####++++++++++++++++",
"++++++++####OOOO@@@@   ooXXXooo.....XXX..   ####++++++++++++++++",
"++++++++####OOOO@@@@   ooXXXooo.....XXX..   ####++++++++++++++++",
"########OOOO++++OOOO   ooXXX........XXX..   ++++++++++++++++++++",
"########OOOO++++OOOO   ooXXX........XXX..   ++++++++++++++++++++",
"########OOOO++++OOOO   ooXXX........XXX..   ++++++++++++++++++++",
"########OOOO++++OOOO   ..XXX........XXX..   ++++++++++++++++++++",
"++++OOOOOOOO++++@@@@   ..XXX........XXX..   ++++++++++++++++++++",
"++++OOOOOOOO++++@@@@   ..XXX........XXX..   ++++++++++++++++++++",
"++++OOOOOOOO++++@@@@   ..XXX........XXX..   ++++++++++++++++++++",
"++++OOOOOOOO++++@@@@   ..XXX........XXX..   ++++++++++++++++++++",
"++++++++++++++++####   .....XXX..XXX.....   ++++++++++++++++@@@@",
"++++++++++++++++####   .....XXX..XXX.....   ++++++++++++++++@@@@",
"++++++++++++++++####   .....XXX..XXX.....   ++++++++++++++++@@@@",
"++++++++++++++++####+++  XXX...XX...XXX  $$$++++++++++++++++@@@@",
"@@@@++++++++####$$$$+++  XXX...XX...XXX  @@@####$$$$@@@@####OOOO",
"@@@@++++++++####$$$$+++++   ...XX...   O@@@@####$$$$@@@@####OOOO",
"@@@@++++++++####$$$$+++++   ...XX...   O@@@@####$$$$@@@@####OOOO",
"@@@@++++++++####$$$$+++++   ...XX...   O@@@@####$$$$@@@@####OOOO",
"OOOO@@@@####++++++++++++++++   XX   ++++####++++OOOOOOOOOOOO++++",
"OOOO@@@@####++++++++++++++++   XX   ++++####++++OOOOOOOOOOOO++++",
"OOOO@@@@####+++++++++++++++++++  +++++++####++++OOOOOOOOOOOO++++",
"OOOO@@@@####+++++++++++++++++++  +++++++####++++OOOOOOOOOOOO++++",
"++++OOOO@@@@+++++++++++++++++++  +++####++++++++++++++++++++++++",
"++++OOOO@@@@++++++++++++++++++++++++####++++++++++++++++++++++++",
"++++OOOO@@@@++++++++++++++++++++++++####++++++++++++++++++++++++",
"++++OOOO@@@@++++++++++++++++++++++++####++++++++++++++++++++++++",
"++++++++OOOO####++++++++++++++++@@@@OOOOOOOO++++++++++++++++@@@@",
"++++++++OOOO####++++++++++++++++@@@@OOOOOOOO++++++++++++++++@@@@",
"++++++++OOOO####++++++++++++++++@@@@OOOOOOOO++++++++++++++++@@@@",
"++++++++OOOO####++++++++++++++++@@@@OOOOOOOO++++++++++++++++@@@@",
"@@@@####++++++++@@@@########@@@@OOOO++++++++++++++++########OOOO",
"@@@@####++++++++@@@@########@@@@OOOO++++++++++++++++########OOOO",
"@@@@####++++++++@@@@########@@@@OOOO++++++++++++++++########OOOO",
"@@@@####++++++++@@@@########@@@@OOOO++++++++++++++++########OOOO",
"++++OOOO####@@@@++++++++++++OOOO++++++++@@@@####@@@@++++OOOO++++",
"++++OOOO####@@@@++++++++++++OOOO++++++++@@@@####@@@@++++OOOO++++",
"++++OOOO####@@@@++++++++++++OOOO++++++++@@@@####@@@@++++OOOO++++",
"++++OOOO####@@@@++++++++++++OOOO++++++++@@@@####@@@@++++OOOO++++"
};
