/* XPM */
static char *daae830faa784f58c647607142d0f092b3gAkjHryhiD6RNU[] = {
/* columns rows colors chars-per-pixel */
"64 64 11 1 ",
"  c #05001F",
". c #284D73",
"X c #F44336",
"o c #33679C",
"O c #477F91",
"+ c #4C8FA6",
"@ c #509EBA",
"# c #428CD6",
"$ c #61B0C1",
"% c #7BBBC8",
"& c #CFD8DC",
/* pixels */
"++++++++++++@@@@++++++++OOOOOOOOOOOO@@@@++++++++++++OOOOOOOOOOOO",
"++++++++++++@@@@++++++++OOoooooooooooo@@++++++++++++OOOOOOOOOOOO",
"++++++++++++@@@@++++++++OOoooooooooooo@@++++++++++++OOOOOOOOOOOO",
"++++++++++++@@@@++++++++OOoooooooooooo@@++++++++++++OOOOOOOOOOOO",
"++++++++@@@@++++++++++++++oooooooooooo@@++++++++++++++++++++++++",
"++++++++@@@@++++++++++++++oooooooooooo@@++++++++++++++++++++++++",
"++++++++@@@@++++++++++oooooooooooooo..@@++++++++++++++++++++++++",
"++++++++@@@@++++++++++oooooooooooooo..@@++++++++++++++++++++++++",
"@@@@++++$$$$++++++++++oooooooooooo..%%%%++++++++++++++++++++@@@@",
"@@@@++++$$$$++++++++++oooooooooooo..%%%%++++++++++++++++++++@@@@",
"@@@@++++$$$$++++++++++oooooooooooo..%%%%++++++++++++++++++++@@@@",
"@@@@++++$$$$++++++++++oooooooooooo..%%%%++++++++++++++++++++@@@@",
"++++@@@@@@@#############oooooooooo..$$$$++++++++++++@@@@$$$$OOOO",
"++++@@@@@@@#############oooooooooo..$$$$++++++++++++@@@@$$$$OOOO",
"++++@@@@@@@#############oooooooooo..$$$$++++++++++++@@@@$$$$OOOO",
"++++@@@@@@@#############oooooooooo..$$$$++++++++++++@@@@$$$$OOOO",
"+++++++++++#############oooooooooo..@@@@++++++++$$$$OOOOOOOO++++",
"+++++++####ooooooooooooo####oooooo..@@@@++++++++$$$$OOOOOOOO++++",
"+++++++####ooooooooooooo####oooooo..@@@@++++++++$$$$OOOOOOOO++++",
"+++ooooooooooooooooooooooooooooooo..@@@@++++++++$$$$Ooooooooooo+",
"+++ooooooooooooooooooooooooooooooo..++++@@@@$$$$OOOO+oooooooooo+",
"+++ooooooooooooooooooooooooooooooo..++++@@@@$$$$OOOO+oooooooooo+",
"+++ooooooooooooooooooooooooooooooo..++++@@@@$$$$OOOO+oooooooooo+",
"+++ooooooooooooooooooooooooooooooo..++++@@@@$$$$OOOO+oooooooooo+",
"+ooooooooooooooooooooooooooooooooooooooooo....$$+++oooooooo+++++",
"+ooooooooooooooooooooooooooooooooooooooooo....$$+++oooooooo+++++",
"+ooooooooooooooooooooooooooooooooooooooooo....$$+++oooooooo+++++",
"+ooooooooooooooooooooooooooooooooooooooooo....$$+++oooooooo+++++",
"$ooooooooooooooooooooooooooooooooooooooooo....+++++oooooooo+++++",
"$ooooooooooooooooooooooooooooooooooooooooooooo.....oooooooo+++++",
"$ooooooooooooooooooooooooooooooooooooooooooooo.....oooooooo+++++",
"$ooooooooooooooooooooo    ooooooooooooooooooooooo..oooooo+++++++",
"+ooooooooooooooooooooo    ooooooooooooooooooooooo..oooooo+++++++",
"+ooooooooooooooooooooo    ooooooooooooooooooooooo..oooooo+++++++",
"+ooooooooooooooooooooo    ooooooooooooooooooooooo..oooooo+++++++",
"+++ooooooooooooooooooo    ooooooooooooooooooooooooooooooo+++++++",
"+++ooooooooooooooooooo    ooooooooooooooooooooooooooooooo+++@@@@",
"+++ooooooooooooooooooo    ooooooooooooooooooooooooooooooo+++@@@@",
"+++ooooooooooooooooooo    ooooooooooooooooooooooooooooooo+++@@@@",
"+++ooooooooooooooooooo    ooooooooooooooooooooooooooooooo+++@@@@",
"@@@@+ooooooooooooooooooooooooooooooooooooo.....$%..oooooo$$$OOOO",
"@@@@+ooooooooooooooooooooooooooooooooooooo.....$%..oooooo$$$OOOO",
"@@@@+ooooooooooooooooooooooooooooooooooooo.....$%..oooooo$$$OOOO",
"@@@@+ooooooooooooooooooooooooooooooooooooo.....$%..oooooo$$$OOOO",
"OOOO@ooooooooooooooooooooooooooooooooooooo.....+O..ooooooOOO++++",
"OOOO@&&&&&&&&&&&&&XXXXoooooooooooo........$$++++O..ooooooOOO++++",
"OOOO@&&&&&&&&&&&&&XXXXoooooooooooo........$$++++O..ooooooOOO++++",
"OOOO@@@@$$$$+++.....++++++oooooooo++++++$$$$++++OOO..ooooOOO++++",
"++++OOOO@@@@+++.....++++++oooooooo++$$$$+++++++++++..oooo+++++++",
"++++OOOO@@@@+++.....++++++oooooooo++$$$$+++++++++++..oooo+++++++",
"++++OOOO@@@@+++.....++++++oooooooo++$$$$+++++++++++..oooo+++++++",
"++++OOOO@@@@+++.....++++++oooooooo++$$$$+++++++++++..oooo+++++++",
"++++++++OOOO$$$.....++++++++oooooo@@OOOOOOOO+++++++++....+++@@@@",
"++++++++OOOO$$$.....++++++++oooooo@@OOOOOOOO+++++++++....+++@@@@",
"++++++++OOOO$$$.....++++++++oooooo@@OOOOOOOO+++++++++....+++@@@@",
"++++++++OOOO$$$.....++++++++oooooo@@OOOOOOOO+++++++++....+++@@@@",
"@@@@$$$$++++++++....$$$$$$$$@@ooooOO++++++++++++++++$$$$$$$$OOOO",
"@@@@$$$$++++++++....$$$$$$$$@@ooooOO++++++++++++++++$$$$$$$$OOOO",
"@@@@$$$$++++++++@@..$$$$$$$$@@@@ooOO++++++++++++++++$$$$$$$$OOOO",
"@@@@$$$$++++++++@@..$$$$$$$$@@@@ooOO++++++++++++++++$$$$$$$$OOOO",
"++++OOOO$$$$@@@@++..++++++++OOOOoo++++++@@@@$$$$@@@@++++OOOO++++",
"++++OOOO$$$$@@@@++..++++++++OOOOoo++++++@@@@$$$$@@@@++++OOOO++++",
"++++OOOO$$$$@@@@++..++++++++OOOOoo++++++@@@@$$$$@@@@++++OOOO++++",
"++++OOOO$$$$@@@@++++++++++++OOOO++++++++@@@@$$$$@@@@++++OOOO++++"
};
