/* XPM */
static char *_4b8ecf73c9d4a70be41a2c081b2e76aoaESM8GsYT2eq0A4[] = {
/* columns rows colors chars-per-pixel */
"64 64 7 1 ",
"  c black",
". c #464646",
"X c #ED1C24",
"o c #FFC20E",
"O c #F5E49C",
"+ c #FFF9BD",
"@ c white",
/* pixels */
"OOOOOOOOOOOOOOOOOOOOOOOOOOOOOOOOOOOOOOOOOOOOOOOOOOOOOOOOOOOOOOOO",
"OOOOOOOOOOOOOOOOOOOOOOOOOOOOOOOOOOOOOOOOOOOOOOOOOOOOOOOOOOOOOOOO",
"OOOOOOOOOOOOOOOOOOOOOOOOOOOOOOOOOOOOOOOOOOOOOOOOOOOOOOOOOOOOOOOO",
"OOOOOOOOOOOOOOOOOOOOOOOOOOOOOOOOOOOOOOOOOOOOOOOOOOOOOOOOOOOOOOOO",
"OOOOOOOOOOOOOOOOOOOOOOOOOOOOOOOOOOOOOOOOOOOOOOOOOOOOOOOOOOOOOOOO",
"OOOOOOOOOOOOOOOOOOOOOOOOOOOOOOOOOOOOOOOOOOOOOOOOOOOOOOOOOOOOOOOO",
"OOOOOOOOOOOOOOOOOOOOOOOOOOOOOOOOOOOOOOOOOOOOOOOOOOOOOOOOOOOOOOOO",
"OOOOOOOOOOOOOOOOOOOOOOOOOOOOOOOOOOOOOOOOOOOOOOOOOOOOOOOOOOOOOOOO",
"OOOOOOOOOOOOOOOOOOOOOOOOOOOOOO               OOOOOOOOOOOOOOOOOOO",
"OOOOOOOOOOOOOOOOOOOOOOOO                          OOOOOOOOOOOOOO",
"OOOOOOOOOOOOOOOOOOOOO                                OOOOOOOOOOO",
"OOOOOOOOOOOOOOOOOO                            @        OOOOOOOOO",
"OOOOOOOOOOOOO                             @  @           OOOOOOO",
"OOOOOOOOOO                                @@@             OOOOOO",
"OOOOOOOO                                   @               OOOOO",
"OOO                                                         OOOO",
"OO                                                           OOO",
"OOOOOOOOOOOOOOOOO   ++++++++++++++++++++++++++++++++++ OOOOOOOOO",
"OOOOOOOOOOOOOOO   ++++++++++++++++++++++++++++++++++++  OOOOOOOO",
"OOOOOOOOOOOOOO  +++       +++++++++++++++++++++++++++++ OOOOOOOO",
"OOOOOOOOOOOOOO ++++ XX@@  +++++++++++++++++++++++++++++ OOOOOOOO",
"OOOOOOOOOOOOO +++++ @@ @@ +++++++++++++++++++++++++++++ OOOOOOOO",
"OOOOOOOOOOOOO +++++ X@ @@ +++++++++++++++++++++++++++++ OOOOOOOO",
"OOOOOOOOOOOO  +++++ @@@XX +++++++++++++++++++++++++++++ OOOOOOOO",
"OOOOOOOOOOOO ++++++        ++++++++++++++++++++++++++++ OOOOOOOO",
"OOOOOOOOOOO  ++++++++++++++++++++++++++++++++++++++++++ OOOOOOOO",
"OOOOOOOOOOO +++++++++++++++++++++++++++++++++++++++++++ OOOOOOOO",
"OOOOOOOOOOO ++++++Xoo++++++++++++++++++++++++++++++++++ OOOOOOOO",
"OOOOOOOOOOO ++++++++oo+++ +++++++++++++++++++++++++++++ OOOOOOOO",
"OOOOOOOOOOO  ++++++++oo+  +++++++++++++++++++++++++++++ OOOOOOOO",
"OOOOOOOOOOOO +++++++++o  +++++++++++++++++++++++++++++  OOOOOOOO",
"OOOOOOOOOOOO ++++       ++++++++++++++++++++++++++++++ OOOOOOOOO",
"OOOOOOOOOOOO   +++++++++++++++++++++++++++++++++++++++ OOOOOOOOO",
"OOOOOOOOOOOOOO    +++++++++++++++++++++++++++++++++++  OOOOOOOOO",
"OOOOOOOOOOOOOOOOO    ++++++++++++++++++++++++++++++++ OOOOOOOOOO",
"OOOOOOOOOOOOOOOOOOOO      ++++++++++          ++++    OOOOOOOOOO",
"OOOOOOOOOOOOOOOOOOOOOOOOO                          OOOOOOOOOOOOO",
"OOOOOOOOOOOOOOOOOOOOOOO                       OOOOOOOOOOOOOOOOOO",
"OOOOOOOOOOOOOOOOOOOOOO                        OOOOOOOOOOOOOOOOOO",
"OOOOOOOOOOOOOOOOOOOOOO                        OOOOOOOOOOOOOOOOOO",
"OOOOOOOOOOOOOOOOOOOOOO                   @            OOOOOOOOOO",
"OOOOOOOOOOOOOOOOOOOOO             .  @  @      O        OOOOOOOO",
"OOOOOOOOOOOOOOOOOOOOO             .  @@@       O         OOOOOOO",
"OOOOOOOOOOOOOOOOOOOOO             .   @        O          OOOOOO",
"OOOOOOOOOOOOOOOOOOOO              .            O           OOOOO",
"OOOOOOOOOOOOOOOOOOOO              .            O           OOOOO",
"OOOOOOOOOOOOOOOOOOOO              .            O            OOOO",
"OOOOOOOOOOOOOOOOOOOO              .            O            OOOO",
"OOOOOOOOOOOOOOOOOOOOO              .       .   O @          OOOO",
"OOOOOOOOOOOOOOOOOOOOOO             .       .      @  @      OOOO",
"OOOOOOOOOOOOOOOOOOOOOOOO           ..      .       @@@      OOOO",
"OOOOOOOOOOOOOOOOOOOOOOOOO           ........  OO    @       OOOO",
"OOOOOOOOOOOOOOOOOOOOOOOOOO                    OO            OOOO",
"OOOOOOOOOOOOOOOOOOOOOOOOOOOOO                 OO            OOOO",
"OOOOOOOOOOOOOOOOOOOOOOOOOOOOOOOOOO           OOOO           OOOO",
"OOOOOOOOOOOOOOOOOOOOOOOOOOOOOOOO         OOOOOOOOOO        OOOOO",
"OOOOOOOOOOOOOOOOOOOOO                    OOOOOOOOOOOOOOOOOOOOOOO",
"OOOOOOOOOOOOOOOOOOOO                     OOOOOOOOOOOOOOOOOOOOOOO",
"OOOOOOOOOOOOOOOOOOOO              @      OOOOOOOOOOOOOOOOOOOOOOO",
"OOOOOOOOOOOOOOOOOOOO          @  @       OOOOOOOOOOOOOOOOOOOOOOO",
"OOOOOOOOOOOOOOOOOOOO          @@@        OOOOOOOOOOOOOOOOOOOOOOO",
"OOOOOOOOOOOOOOOOOOOOO          @        OOOOOOOOOOOOOOOOOOOOOOOO",
"OOOOOOOOOOOOOOOOOOOOOO                  OOOOOOOOOOOOOOOOOOOOOOOO",
"OOOOOOOOOOOOOOOOOOOOOOOOOOOOOOOOOOOOOOOOOOOOOOOOOOOOOOOOOOOOOOOO"
};
