/* XPM */
static char *_d3bfb33b0b540e0e870054e97eb1975OwaUB2IcdBXVC9zb[] = {
/* columns rows colors chars-per-pixel */
"64 64 3 1 ",
"  c black",
". c #9C5A3C",
"X c #FFC20E",
/* pixels */
"                                                                ",
" ..................... ... ............. ... .................. ",
" ..................... ... ............. ... .................. ",
" ..................... ... ............. ... .................. ",
" ..................... ... .....   ..... ... .................. ",
" ..................... ... ..... . ..... ... .................. ",
" ..................... ... ..... . ..... ... .................. ",
" .....       ......... ... ..... . ..... ... .................. ",
" ..... ..... ......... ... ..... . ..... ... .................. ",
" ..... .. .. ......... ... ..... . ..... ... .................. ",
" ..... .. .. ......... ... ..... . ..... ... .................. ",
" ..... .. .. ......... ... ..... . ..... ... .................. ",
" ..... .. .. ......... ... ..... . ..... ... .................. ",
" ..... .. .. ......... ... ..... . ..... ... .................. ",
" ..... .. .. ......... ... ..... . ..... ... .................. ",
" ..... .. .. ......... ... ..... . ..... ... .................. ",
" ..... .. .. ......... ... .....   ..... ... .................. ",
" ..... .. .. ......... ... ............. ... .................. ",
" ..... .. .. ......... ... ............. ... .................. ",
" ..... .. .. ......... ... ............. ... .................. ",
" ..... .. .. ......... ...               ... .................. ",
" ..... .. .. ......... ..................... .................. ",
" ..... .. .. ......... ..................... .................. ",
" ..... .. .. .........                       .................. ",
" ..... .. .. .................................................. ",
" ..... .. .. .................................................. ",
" ..... .. .. .................................................. ",
" ..... .. .. .................................................. ",
" ..... .. .. .........                       .................. ",
" ..... .. .. ......... ..................... ..........XXXXXX.. ",
" ..... .. .. ......... ..                 .. ..........XXXXXX.. ",
" ..... .. .. ......... ..                 .. ..........XXXXXX.. ",
" ..... .. .. ......... ..................... ..........XXXXXX.. ",
" ..... .. .. .........                       ..........XXXXXX.. ",
" ..... .. .. ..........................................XXXXXX.. ",
" ..... .. .. .................................................. ",
" ..... .. .. .................................................. ",
" ..... .. .. .................................................. ",
" ..... .. .. .........                       .................. ",
" ..... .. .. ......... ..................... .................. ",
" ..... .. .. ......... ..................... .................. ",
" ..... .. .. ......... ..................... .................. ",
" ..... .. .. ......... ..                 .. .................. ",
" ..... .. .. ......... .. ............... .. .................. ",
" ..... .. .. ......... .. ............... .. .................. ",
" ..... .. .. ......... .. ............... .. .................. ",
" ..... .. .. ......... .. ............... .. .................. ",
" ..... .. .. ......... .. ............... .. .................. ",
" ..... .. .. ......... .. .....     ..... .. .................. ",
" ..... .. .. ......... .. ..... ... ..... .. .................. ",
" ..... .. .. ......... .. ..... ... ..... .. .................. ",
" ..... .. .. ......... .. ..... ... ..... .. .................. ",
" ..... .. .. ......... .. ..... ... ..... .. .................. ",
" ..... .. .. ......... .. ..... ... ..... .. .................. ",
" ..... .. .. ......... .. ..... ... ..... .. .................. ",
" ..... ..... ......... .. ..... ... ..... .. .................. ",
" ..... ..... ......... .. ..... ... ..... .. .................. ",
" .....       ......... .. ..... ... ..... .. .................. ",
" ..................... .. ..... ... ..... .. .................. ",
" ..................... .. ..... ... ..... .. .................. ",
" ..................... .. .....     ..... .. .................. ",
" ..................... .. ............... .. .................. ",
" ..................... .. ............... .. .................. ",
"                                                                "
};
