/* XPM */
static char *_9ee39be7ba54ccdf1787231af135e81fVTGok2nrH98vjM7[] = {
/* columns rows colors chars-per-pixel */
"64 64 9 1 ",
"  c #593D29",
". c #79553A",
"X c #6C6C6C",
"o c #990030",
"O c #ED1C24",
"+ c #CC0443",
"@ c #966C4A",
"# c #B9855C",
"$ c gray53",
/* pixels */
"####@@@@@@@@........####@@@@@@@@.........    ........####....###",
"....@@@@    ........@@@@$$$$    .....####@@@@....####@@@@       ",
"...OOOOOOOOOOOOOOOOOOOOOOOOOOOOOOOOOOOOOOOOOOOOOOOOOOOOOOOOOO   ",
"...OOOOOOOOOOOOOOOOOOOOOOOOOOOOOOOOOOOOOOOOOOOOOOOOOOOOOOOOOO   ",
"...OO++oooooooooooooooooooooooooooooooooooooooooooooooooo++OO   ",
"###OO++oooooooooooooooooooooooooooooooooooooooooooooooooo++OO@@@",
"###OOooooooooooooooooooooooooooooooooooooooooooooooooooooooOO@@@",
"###OOooooooooooooooooooooooooooooooooooooooooooooooooooooooOO@@@",
"###OOooooooooooooooooooooooooooooooooooooooooooooooooooooooOO@@@",
"###OOooooooooooooooooooooooooooooooooooooooooooooooooooooooOO@@@",
"@@@OOooooooooooooooooooooooooooooooooooooooooooooooooooooooOO...",
"@@@OOooooooooooooooooooooooooooooooooooooooooooooooooooooooOO...",
"@@@OOooooooooooooooooooooooooooooooooooooooooooooooooooooooOO...",
"@@@OOooooooooooooooooooooooooooooooooooooooooooooooooooooooOO...",
"@@@OOooooooooooooooooooooooooooooooooooooooooooooooooooooooOO...",
"@@@OOoooooooooooooOOOOOOOOOOOOOOOOOOOOOOOOOOOOOOOooooooooooOO...",
"@@@OOoooooooooooooOOOOOOOOOOOOOOOOOOOOOOOOOOOOOOOooooooooooOO...",
"@@@OOoooooooooooooOO@@@@........@@@@@    ....XXOO++oooooo++OO...",
"...OOoooooooooooooOO@@@@             ........  OO++oooooo++OO###",
"...OOoooooooooooooOO@@@@             ........  OOOOOOOOOOOOOO###",
"...OOoooooooooooooOO@@@@             ........  OOOOOOOOOOOOOO###",
"...OOoooooooooooooOO@@@@             ........    ............###",
"###OOoooooooooooooOO........#########....########....@@@@....@@@",
"###OOoooooooooooooOO........#########....########....@@@@....@@@",
"###OOoooooooooooooOO........#########....########....@@@@....@@@",
"###OOoooooooooooooOO........#########....########....@@@@....@@@",
"...OOoooooooooooooOO@@@@........@@@@@OO  @@@@@@@@........@@@@@@@",
"...OOoooooooooooooOOOOOOOOOOOOOOOOOOOOO  @@@@@@@@........@@@@@@@",
"...OOoooooooooooooooooooooooooooooo++OO  @@@@@@@@........@@@@@@@",
"...OOoooooooooooooooooooooooooooooo++OO  @@@@@@@@........@@@@@@@",
"@@@OOooooooooooooooooooooooooooooooooOO@@@@@@............    ...",
"@@@OOooooooooooooooooooooooooooooooooOO@@@@@@............    ...",
"@@@OOooooooooooooooooooooooooooooooooOO@@@@@@............    ...",
"@@@OOoooooooooooooooooooooooooooooo++OO@@@@@@............    ...",
"@@@OOoooooooooooooooooooooooooooooo++OO@@@@@@............    ...",
"...OOoooooooooooooOOOOOOOOOOOOOOOOOOOOO..........########....@@@",
"...OOoooooooooooooOO        .........OO..........########....@@@",
"...OOoooooooooooooOO        .....................########....@@@",
"...OOoooooooooooooOO        .....................########....@@@",
"...OOoooooooooooooOO....####@@@@     ########    @@@@@@@@$$$$...",
"...OOoooooooooooooOO....####@@@@     ########    @@@@@@@@$$$$...",
"...OOoooooooooooooOO....####@@@@     ########    @@@@@@@@$$$$...",
"...OOoooooooooooooOO....####@@@@     ########  OOOOOOOOOOOOOO...",
"@@@OOoooooooooooooOO####....@@@@XXXXX@@@@@@@@..OOOOOOOOOOOOOO   ",
"@@@OOoooooooooooooOO####....@@@@XXXXX@@@@@@@@..OO++oooooo++OO   ",
"@@@OOoooooooooooooOO####....@@@@XXXXX@@@@@@@@..OO++oooooo++OO   ",
"@@@OOoooooooooooooOOOOOOOOOOOOOOOOOOOOOOOOOOOOOOOooooooooooOO   ",
"...OOoooooooooooooOOOOOOOOOOOOOOOOOOOOOOOOOOOOOOOooooooooooOO###",
"...OOooooooooooooooooooooooooooooooooooooooooooooooooooooooOO###",
"...OOooooooooooooooooooooooooooooooooooooooooooooooooooooooOO###",
"...OOooooooooooooooooooooooooooooooooooooooooooooooooooooooOO###",
"...OOooooooooooooooooooooooooooooooooooooooooooooooooooooooOO@@@",
"...OOooooooooooooooooooooooooooooooooooooooooooooooooooooooOO@@@",
"...OOooooooooooooooooooooooooooooooooooooooooooooooooooooooOO@@@",
"...OOooooooooooooooooooooooooooooooooooooooooooooooooooooooOO@@@",
"...OOooooooooooooooooooooooooooooooooooooooooooooooooooooooOO@@@",
"@@@OOooooooooooooooooooooooooooooooooooooooooooooooooooooooOO@@@",
"@@@OO++oooooooooooooooooooooooooooooooooooooooooooooooooo++OO@@@",
"@@@OO++oooooooooooooooooooooooooooooooooooooooooooooooooo++OO@@@",
"@@@OOOOOOOOOOOOOOOOOOOOOOOOOOOOOOOOOOOOOOOOOOOOOOOOOOOOOOOOOO@@@",
"@@@OOOOOOOOOOOOOOOOOOOOOOOOOOOOOOOOOOOOOOOOOOOOOOOOOOOOOOOOOO   ",
"@@@@....####@@@@@@@@....$$$$....@@@@@@@@@........@@@@@@@@....   ",
"@@@@....####@@@@@@@@....$$$$....@@@@@@@@@........@@@@@@@@....   ",
"@@@@....####@@@@@@@@....$$$$....@@@@@@@@@........@@@@@@@@....   "
};
