/* XPM */
static char *_f1b7eed07e8472887b02cd55aed5919pJiO4l58pd5oxkOz[] = {
/* columns rows colors chars-per-pixel */
"64 64 2 1 ",
"  c #464646",
". c #F5E49C",
/* pixels */
"................................................................",
"................................................................",
"................................................................",
".........................                            ...........",
"....        ..............                              ........",
"..             ...........                               .......",
"..              ..........                                ......",
".                 .........                               ......",
".                 ..........           .........................",
".                  .............................................",
"..                 ..............                    ...........",
"..                  ..........                        ......  ..",
"..                  .......                            .....   .",
"...                 .....                              .....   .",
"...                 .....                              .....   .",
"....                .....                              .....   .",
".....               .....                              .....   .",
".....               .......                            .....   .",
".......             .........                          ...... ..",
"........           ............                       ..........",
"..........         ...............                  ............",
".............    .....................         .................",
".......................       ..................................",
"......................         .................................",
"......................           ................         ......",
"......................            ...............          .....",
"......................              .............          .....",
"......................                ...........          .....",
"........  ............                   ........          .....",
"......       .........                    .......          .....",
"......          ......                      ......       .......",
".....             .....                 ........................",
".....              .............................................",
".....               ............................................",
"......               ...........................................",
"......                 ..................               ........",
"......                 ............                      .......",
"......                 .............                     .......",
"......                ..............                      ......",
".......                 ............                      ......",
".......                .............                       .....",
".......              ...............                       .....",
"........           .............. ...                      .....",
"........          ..........       ..                      .....",
".........       ..........         ...                     .....",
"..........     ..........           ..                      ....",
"..........   ..........             ...                     ....",
".....................                ...                    ....",
"...................                  ....                    ...",
".................                    ......                  ...",
".....  .........                      .......                ...",
".....    ......                       ........              ....",
"....       ...                        ..........            ....",
"....        .....                     ............        ......",
"....         ..........               ..........................",
"....           ............         ............................",
"....            ................................................",
"....             ................................. .............",
"....              ........                          ............",
".....             .......                           ............",
"........................                            ............",
".......................                          ...............",
"................................................................",
"................................................................"
};
