/* XPM */
static char *dd5f040772fa4672bd8aa440616d68a1DxinRb4ZxGsElvTf[] = {
/* columns rows colors chars-per-pixel */
"64 64 2 1 ",
"  c #000001",
". c #E300E3",
/* pixels */
" .    . ..  . .  .. .   ....      .                             ",
"  ...  ....   ....    . .....   . .  .  .                       ",
"   ...... .. .   .... ... .  . ..   .   .                       ",
"  ........... ...... ..  . ..  .  ..  .. . ..  .                ",
"...  .... .. .....   .... . . .... . . .    . ...  .   .        ",
"......... .  .. ... .... ..... .... ... . . .   .... ..         ",
" . ... ...........  ... ..... .....  .  ..........  .......  .  ",
".................  ..... .......  . ..... ..... .............   ",
"............................  .. ...  . ..   ... ........ ......",
".................. . ................ ....  ....................",
".............. ......... ......... ..... .... ..................",
"................. . .  .......... .......................... ...",
".......... ..... ... . ... .. .  ......... .....................",
"........... .... ... . .......... .... ....... .................",
".............  ......  . ..    ...... ..........................",
"............... .. . .. ....... . .. ... .......................",
".............. . . .......   . ..... ...... ........... ........",
".......... . . . .  ......  ...... .................    .. .....",
"...... .             .. .......... . .. ........... .     . ....",
"......                ............................ ...      ....",
"...                 ................ ..................        .",
"                   ...................  ...............         ",
"                 ...................... ...............         ",
"               .......................   ... ........... .      ",
"               ........................   .............. .      ",
"            ........................... .  ................     ",
"              . . ........................    ............      ",
"             ...........................       ............     ",
"           .............................. ..  .......... ...    ",
"          ........................... .... .   .............  . ",
"        .. . . ..........................  .     .......... . . ",
"         ...............  ..............  ...   ............. ..",
"        ...   ........  ..  ............. . .   .........  .....",
"       ...............  .. ...  ... .... ....    .....  ...... .",
"      ........... ..  ...  ........... ....     . ............ .",
"      . .......... . ...  . ...     . . .. .      .. ...........",
"       ........... ..... ..  .      ... ...        . .........  ",
"     ............ .... .  .        . ... ..        .........  ..",
"     .............  ....          . ..... .. .   ...............",
"     ... ........ . .....           ... . .  .   ........... . .",
"      .. ....... ..  . . .         ..  .....  . .. ........ ....",
"      .......... ....               . .... .. ............ .. . ",
"     ..............                  .   ........... ... ... .  ",
"        ..........                     ............. ........   ",
"        .. ...                      ................... ......  ",
"           . .                      .............. ...... .     ",
"                                    ....... .............   .   ",
"                                     . ..................       ",
"                                     ...... ... ...... ...      ",
"                                     ........... ....... ..     ",
"         ..  ...... ..... .        . .............. ... . .     ",
"       . .... .. .. ...  . .  .  ... .....................      ",
"     . ....... ............. . .................. .......       ",
"     ...... ............... .. ....................... ..       ",
"   . ...................... .. .................... ....        ",
" .................................... .... .......... ..        ",
" .................................................... ..        ",
"............... ................................ .. ..          ",
"................................ .................. .           ",
"............................. ...................... ..         ",
".........................   ... . ................ .            ",
"............ ................ .. ...............  ...           ",
"...............     ... . . ...  ............... . .            ",
"...........                .       ................             "
};
