/* XPM */
static char *_aa3bf6d153749f0ac83661595ed4f39OD8NKAYrfJWiBsjU[] = {
/* columns rows colors chars-per-pixel */
"64 64 10 1 ",
"  c black",
". c #FF8F00",
"X c #477F91",
"o c #4C8FA6",
"O c #509EBA",
"+ c #61B0C1",
"@ c #7BBBC8",
"# c #EF9A9A",
"$ c #FFEBEE",
"% c white",
/* pixels */
"ooooooooooooOOOOooooooooXXXXXXXXXXXXOOOOooooooooooooXXXXXXXXXXXX",
"ooooooooooooOOOOooooooooXXXXXXXXXXXXOOOOooooooooooooXXXXXXXXXXXX",
"ooooooooooooOOOO               XXXXXOOOOooooooooooooXXXXXXXXXXXX",
"ooooooooooooOOOO               XXXXXOOOOooooooooooooXXXXXXXXXXXX",
"ooooooooOOOOo   %%%%%%%%%%%%%%%  oooOOOOoooooooooooooooooooooooo",
"ooooooooOOOOo   %%%%%%%%%%%%%%%  oooOOOOoooooooooooooooooooooooo",
"ooooooooOOO  %%%%%%%%%%%%%%%%%%%%   OOOOoooooooooooooooooooooooo",
"ooooooooOOO  %%%%%%%%%%%%%%%%%%%%   OOOOoooooooooooooooooooooooo",
"OOOOoooo+++  %%%%%%%%%%%%%%%%%%%%   @@@@ooooooooooooooooooooOOOO",
"OOOOoooo+++  %%%%%%%%%%%%%%%%%%%%   @@@@ooooooooooooooooooooOOOO",
"OOOOoooo+++  %%%%%%%%%%%%   %%%%%   @@@@ooooooooooooooooooooOOOO",
"OOOOoooo+++  %%%%%%%%%%%%   %%%%%   @@@@ooooooooooooooooooooOOOO",
"ooooOOOOOOO  ......%%%%%%   %%%%%   ++++ooooooooooooOOOO++++XXXX",
"ooooOOOOOOO  ......%%%%%%   %%%%%   ++++ooooooooooooOOOO++++XXXX",
"ooooOOOO   ...........%%%%%%%%%%%   ++++ooooooooooooOOOO++++XXXX",
"ooooOOOO   ...........%%%%%%%%%%%   ++++ooooooooooooOOOO++++XXXX",
"ooooo   ..............%%%######  XXXOOOOoooooooo++++XXXXXXXXoooo",
"ooooo   ..............%%%######  XXXOOOOoooooooo++++XXXXXXXXoooo",
"ooooo   ..............%%%######  XXXOOOOoooooooo++++XXXXXXXXoooo",
"oooooooo        $$$%%%%%%%%%   oXXXXOOOOoooooooo++++XXXXXXXXoooo",
"oooooooo        $$$%%%%%%%%%   oooooooooOOOO++++XXXXoooooooooooo",
"ooooooooooooOOOO   %%%%%%%%%   oooooooooOOOO++++XXXXoooooooooooo",
"ooooooooooooOOOO   %%%%%%%%%   oooooooooOOOO++++XXXXoooooooooooo",
"ooooooooooooOOOO   %%%%%%%%%   oooooooooOOOO++++XXXXoooooooooooo",
"oooooooo++++XXXX   %%%%%%%%%   ooooooooooooo++++oooooooooooooooo",
"oooooooo++++XXXX   %%%%%%%%%   ooooooooooooo++++oooooooooooooooo",
"oooooooo++++XXXX   %%%%%%%%%   ooooooooooooo++++oooooooooooooooo",
"oooooooo++++X   $$$%%%%%%%%%   ooooooooooooo++++oooooooooooooooo",
"++++++++XXXXo   $$$%%%%%%%%%   OOOOOooooOOOOoooooooooooooooooooo",
"++++++++XXXXo   %%%%%%%%%%%%   OOOOOooooOOOOoooooooooooooooooooo",
"++++++++XXXXo   %%%%%%%%%%%%   OOOOOooooOOOOoooooooooooooooooooo",
"++++++++XXX  %%%%%%%%%%%%%%%%%%  OOOooooOOOOo        ooooooooooo",
"ooooXXXXXXX  %%%%%%%%%%%%%%%%%%  XXXOOOO++++o        ooooooooooo",
"ooooXXXX   %%%%%%%%%%%%%%%%%%%%%%      O++   %%%%%%%%   oooooooo",
"ooooXXXX   %%%%%%%%%%%%%%%%%%%%%%      O++   %%%%%%%%   oooooooo",
"ooooX   %%%%%%%%%%%%%%%%%%%%%%%%%%%%%%%      %%%%%%%%      ooooo",
"ooooo   %%%%%%%%%%%%%%%%%%%%%%%%%%%%%%%      %%%%%%%%      oOOOO",
"oo   %%%%%%%%%%%%%%%%%%%%%%%%%%%%%%%%%%%%%%%%%%%     %%%$$$   OO",
"oo   %%%%%%%%%%%%%%%%%%%%%%%%%%%%%%%%%%%%%%%%%%%     %%%$$$   OO",
"oo   %%%%%%%%%%%%%%%%%%%%%%%%%%%%%%%%%%%%%%%%   %%%%%   $$$   OO",
"OO   %%%%%%%%%%%%%%%%%%%%%%%%%%%%%%%%%%%%%%%%   %%%%%   $$$   XX",
"OO   %%%%%%%%%%%%%%%%%%%%%%%%%%%%%%%%%%%%%%%%%%%%%%$$   $$$   XX",
"OO   %%%%%%%%%%%%%%%%%%%%%%%%%%%%%%%%%%%%%%%%%%%%%%$$   $$$   XX",
"OO   %%%%%%%%%%%%%%%%%%%%%%%%%%%%%%%%%%%%%%%%%%%%%%  $$$   +XXXX",
"XX   %%%%%%%%%%%%%%%%%%%%%%%%%%%%%%%%%%%%%%%%%%%%%%  $$$   Xoooo",
"XX   %%%%%%%%%%%%%%%%%%%%%%%%%%%%%%%%%%%%%%%%%%%%%%%%%%%   Xoooo",
"XX   %%%%%%%%%%%%%%%%%%%%%%%%%%%%%%%%%%%%%%%%%%%%%%%%%%%   Xoooo",
"XX   %%%%%%%%%%%%%%%%%%%%%%%%%%%%%%%%%%%%%%%%%%%%%%%%%%%   Xoooo",
"ooooX   $$$%%%%%%%%%%%%%%%%%%%%%%%%%%%%%%%%%%%%%%%%%%$$$   ooooo",
"ooooX   $$$%%%%%%%%%%%%%%%%%%%%%%%%%%%%%%%%%%%%%%%%%%$$$   ooooo",
"ooooXXXX   $$   %%%%%%%%%%%%%%%%%%%%%%%$$$   $$$$$$     oooooooo",
"ooooXXXX   $$   %%%%%%%%%%%%%%%%%%%%%%%$$$   $$$$$$     oooooooo",
"ooooooooXXX        $$$$$$$$$$$$$$$$$$$$            oooooooooOOOO",
"ooooooooXXX        $$$$$$$$$$$$$$$$$$$$            oooooooooOOOO",
"ooooooooXXXX++++   ...                 ...   oooooooooooooooOOOO",
"ooooooooXXXX++++   ...                 ...   oooooooooooooooOOOO",
"OOOO++++ooooo   ...   ++++++OOOOX   ...   oooooooooo++++++++XXXX",
"OOOO++++ooooo   ...   ++++++OOOOX   ...   oooooooooo++++++++XXXX",
"OOOO++++ooooo   ...   ++++++OOOOX   ...   oooooooooo++++++++XXXX",
"OOOO++++ooooo   ...   ++++++OOOOX   ...   oooooooooo++++++++XXXX",
"ooooXXXX+++  ......   ooooooXXX  ......   OO++++OOOOooooXXXXoooo",
"ooooXXXX+++  ......   ooooooXXX  ......   OO++++OOOOooooXXXXoooo",
"ooooXXXX++++OOOOooooooooooooXXXXooooooooOOOO++++OOOOooooXXXXoooo",
"ooooXXXX++++OOOOooooooooooooXXXXooooooooOOOO++++OOOOooooXXXXoooo"
};
