/* XPM */
static char *f8bcd0089b3646b1e6096ec4f8c34a88cWiiWXZYCDt7Jiw1[] = {
/* columns rows colors chars-per-pixel */
"64 64 2 1 ",
"  c black",
". c #B4B4B4",
/* pixels */
"........... ............... ............... ............... ....",
"........... ............... ............... ............... ....",
"........... ............... ............... ............... ....",
"........... ............... ............... ............... ....",
"........... ............... ............... ............... ....",
"........... ............... ............... ............... ....",
"........... ............... ............... ............... ....",
"........... ............... ............... ............... ....",
"........... ............... ............... ............... ....",
"........... ............... ............... ............... ....",
"........... ............... ............... ............... ....",
"........... ............... ............... ............... ....",
"........... ............... ............... ............... ....",
"........... ............... ............... ............... ....",
"........... ............... ............... ............... ....",
"                                                                ",
"..... ............... ............... ............... ..........",
"..... ............... ............... ............... ..........",
"..... ............... ............... ............... ..........",
"..... ............... ............... ............... ..........",
"..... ............... ............... ............... ..........",
"..... ............... ............... ............... ..........",
"..... ............... ............... ............... ..........",
"..... ............... ............... ............... ..........",
"..... ............... ............... ............... ..........",
"..... ............... ............... ............... ..........",
"..... ............... ............... ............... ..........",
"..... ............... ............... ............... ..........",
"..... ............... ............... ............... ..........",
"..... ............... ............... ............... ..........",
"..... ............... ............... ............... ..........",
"                                                                ",
".......... ............... ............... ............... .....",
".......... ............... ............... ............... .....",
".......... ............... ............... ............... .....",
".......... ............... ............... ............... .....",
".......... ............... ............... ............... .....",
".......... ............... ............... ............... .....",
".......... ............... ............... ............... .....",
".......... ............... ............... ............... .....",
".......... ............... ............... ............... .....",
".......... ............... ............... ............... .....",
".......... ............... ............... ............... .....",
".......... ............... ............... ............... .....",
".......... ............... ............... ............... .....",
".......... ............... ............... ............... .....",
".......... ............... ............... ............... .....",
"                                                                ",
"... ............... ............... ............... ............",
"... ............... ............... ............... ............",
"... ............... ............... ............... ............",
"... ............... ............... ............... ............",
"... ............... ............... ............... ............",
"... ............... ............... ............... ............",
"... ............... ............... ............... ............",
"... ............... ............... ............... ............",
"... ............... ............... ............... ............",
"... ............... ............... ............... ............",
"... ............... ............... ............... ............",
"... ............... ............... ............... ............",
"... ............... ............... ............... ............",
"... ............... ............... ............... ............",
"... ............... ............... ............... ............",
"... ............... ............... ............... ............"
};
